<svg width="228" height="253" viewBox="0 0 228 253" fill="none" xmlns="http://www.w3.org/2000/svg">
<path d="M207.651 38.782V167.6C207.651 190.911 195.217 211.31 176.628 222.465C173.288 224.485 169.748 226.195 166.027 227.56C159.147 230.126 151.687 231.509 143.917 231.509H84.2498C76.4623 231.509 69.0198 230.108 62.1218 227.542C58.4005 226.177 54.8426 224.467 51.5026 222.447C32.9325 211.274 20.4979 190.893 20.4979 167.6V38.782H207.651Z" fill="#DF7C00"/>
<path d="M20.4961 40.3214C20.4961 40.3214 19.3671 0 33.4662 0C45.6992 0 56.3548 40.3214 56.3548 40.3214H20.4961Z" fill="#DF7C00"/>
<path d="M207.651 38.782C207.651 39.7646 207.633 40.3287 207.633 40.3287H171.781C171.781 40.3287 171.927 39.7646 172.217 38.782C174.305 31.4121 183.871 0.00365448 194.672 0.00365448C207.106 0.00365448 207.687 31.3939 207.651 38.782Z" fill="#DF7C00"/>
<path d="M176.628 206.015V222.465C173.288 224.485 169.748 226.195 166.027 227.56C159.147 230.126 151.687 231.509 143.917 231.509H84.2498C76.4623 231.509 69.0198 230.108 62.1218 227.542C58.4005 226.177 54.8426 224.467 51.5026 222.447V206.015C51.5026 189.273 58.0556 174.06 68.6931 162.814C77.2248 153.843 88.3705 147.383 100.914 144.69C103.201 144.199 105.543 143.835 107.921 143.616C109.936 143.416 111.987 143.307 114.056 143.307C116.144 143.307 118.195 143.416 120.228 143.616C122.606 143.835 124.93 144.199 127.217 144.69C139.76 147.383 150.906 153.843 159.42 162.814C170.075 174.06 176.628 189.273 176.628 206.015Z" fill="#FCB949"/>
<g opacity="0.32">
<path d="M158.318 191.812C158.318 196.678 154.382 200.623 149.528 200.623H146.44C141.586 200.623 137.651 196.678 137.651 191.812H158.318Z" fill="#DF7C00"/>
<path d="M124.4 191.812C124.4 196.678 120.464 200.623 115.61 200.623H112.522C107.668 200.623 103.733 196.678 103.733 191.812H124.4Z" fill="#DF7C00"/>
<path d="M90.4815 191.812C90.4815 196.678 86.5461 200.623 81.6921 200.623H78.6043C73.7503 200.623 69.8148 196.678 69.8148 191.812H90.4815Z" fill="#DF7C00"/>
<path d="M141.358 214.609C141.358 219.475 137.422 223.42 132.568 223.42H129.479C124.625 223.42 120.689 219.475 120.689 214.609H141.358Z" fill="#DF7C00"/>
<path d="M107.441 214.609C107.441 219.475 103.506 223.42 98.652 223.42H95.5642C90.7102 223.42 86.7748 219.475 86.7748 214.609H107.441Z" fill="#DF7C00"/>
<path d="M141.358 169.016C141.358 173.882 137.422 177.827 132.568 177.827H129.479C124.625 177.827 120.689 173.882 120.689 169.016H141.358Z" fill="#DF7C00"/>
<path d="M107.441 169.016C107.441 173.882 103.506 177.827 98.652 177.827H95.5642C90.7102 177.827 86.7748 173.882 86.7748 169.016H107.441Z" fill="#DF7C00"/>
</g>
<path d="M120.628 108.714C120.628 115.392 119.429 121.78 117.215 127.694C116.325 130.078 115.273 132.407 114.074 134.609C104.907 151.441 87.0997 162.869 66.6054 162.869C43.4427 162.869 23.6746 148.238 16.0142 127.694C13.7814 121.78 12.5834 115.392 12.5834 108.714C12.5834 102.036 13.7814 95.6484 16.0142 89.7343C23.6746 69.1896 43.4427 54.559 66.6054 54.559C87.0997 54.559 104.907 65.9868 114.074 82.8193C115.273 85.0212 116.325 87.3505 117.215 89.7343C119.429 95.6484 120.628 102.036 120.628 108.714Z" fill="#773600"/>
<path d="M107.019 115.236C110.611 92.8899 95.4523 71.8555 73.1609 68.2545C50.8694 64.6534 29.8866 79.8495 26.2944 102.196C22.7022 124.542 37.8609 145.577 60.1524 149.178C82.4438 152.779 103.427 137.583 107.019 115.236Z" fill="#FAF6CD"/>
<path d="M94.1496 113.173C96.6069 97.9166 86.2617 83.5521 71.043 81.0887C55.8243 78.6254 41.4951 88.996 39.0378 104.252C36.5804 119.508 46.9256 133.873 62.1443 136.336C77.363 138.8 91.6923 128.429 94.1496 113.173Z" fill="black"/>
<path d="M83.4584 104.618C89.5709 104.618 94.526 99.6505 94.526 93.523C94.526 87.3954 89.5709 82.4281 83.4584 82.4281C77.3459 82.4281 72.3907 87.3954 72.3907 93.523C72.3907 99.6505 77.3459 104.618 83.4584 104.618Z" fill="#FAF6CD"/>
<path d="M215.547 108.714C215.547 115.392 214.349 121.78 212.135 127.694C210.955 130.86 209.484 133.881 207.76 136.738C207.724 136.792 207.687 136.847 207.651 136.92C198.157 152.478 181.057 162.869 161.525 162.869C160.817 162.869 160.109 162.851 159.42 162.814C146.477 162.323 134.696 157.264 125.656 149.203C123.695 147.474 121.88 145.6 120.228 143.616C117.868 140.832 115.817 137.811 114.074 134.609L114.056 134.59C113.312 133.226 112.64 131.843 112.023 130.405C111.624 129.513 111.261 128.604 110.916 127.694C108.719 121.78 107.503 115.392 107.503 108.714C107.503 102.036 108.719 95.6484 110.916 89.7343C111.805 87.3505 112.858 85.0576 114.056 82.8375L114.074 82.8193C123.223 65.9868 141.031 54.559 161.525 54.559C181.057 54.559 198.157 64.9496 207.651 80.5083C209.412 83.4198 210.918 86.4952 212.116 89.7343C214.331 95.6302 215.547 102.036 215.547 108.714Z" fill="#773600"/>
<path d="M201.385 118.044C206.523 96.0031 192.865 73.9595 170.879 68.8081C148.892 63.6566 126.903 77.3481 121.764 99.3888C116.625 121.43 130.283 143.473 152.27 148.625C174.256 153.776 196.246 140.085 201.385 118.044Z" fill="#FAF6CD"/>
<path d="M188.655 115.073C192.173 100.027 182.857 84.9709 167.848 81.4443C152.839 77.9177 137.82 87.256 134.302 102.302C130.784 117.348 140.1 132.404 155.109 135.931C170.118 139.457 185.137 130.119 188.655 115.073Z" fill="black"/>
<path d="M178.364 104.618C184.476 104.618 189.431 99.6505 189.431 93.523C189.431 87.3955 184.476 82.4281 178.364 82.4281C172.251 82.4281 167.296 87.3955 167.296 93.523C167.296 99.6505 172.251 104.618 178.364 104.618Z" fill="#FAF6CD"/>
<path d="M212.116 89.7343H16.0142C23.6745 69.1896 43.4427 54.559 66.6054 54.559C87.0997 54.559 104.907 65.9868 114.074 82.8193C123.223 65.9868 141.031 54.559 161.525 54.559C181.057 54.559 198.157 64.9496 207.651 80.5083C209.412 83.4198 210.918 86.4952 212.116 89.7343Z" fill="#773600"/>
<path d="M212.135 127.694C210.955 130.86 209.484 133.881 207.76 136.738C207.724 136.792 207.687 136.847 207.651 136.92C198.157 152.478 181.057 162.869 161.525 162.869C160.817 162.869 160.109 162.851 159.42 162.814C146.477 162.323 134.696 157.264 125.656 149.203C123.695 147.474 121.88 145.6 120.228 143.616C117.868 140.832 115.817 137.811 114.074 134.609C104.907 151.441 87.0996 162.869 66.6054 162.869C43.4427 162.869 23.6745 148.238 16.0142 127.694H212.135Z" fill="#773600"/>
<path d="M121.733 130.405H106.396C101.3 130.405 97.7244 135.439 99.3908 140.264L107.06 162.498C109.36 169.167 118.771 169.167 121.072 162.498L128.742 140.264C130.405 135.437 126.828 130.405 121.733 130.405Z" fill="#F15A29"/>
<path d="M20.3509 136.698V210.331C20.3509 210.331 0 200.77 0 170.941C0 141.112 20.3509 136.698 20.3509 136.698Z" fill="#773600"/>
<path d="M228 170.949C228 200.774 207.651 210.327 207.651 210.327V136.701C207.651 136.701 207.687 136.701 207.76 136.738C209.357 137.12 228 142.379 228 170.949Z" fill="#773600"/>
<path d="M88.5555 223.42H72.7646C64.0423 223.42 56.9736 230.508 56.9736 239.25V244.738C56.9736 248.873 59.9888 252.565 64.0931 252.956C68.8019 253.406 72.7646 249.706 72.7646 245.079C72.7646 249.45 76.2989 252.995 80.661 252.995C85.023 252.995 88.5573 249.452 88.5573 245.079C88.5573 249.706 92.5201 253.408 97.2288 252.956C101.335 252.563 104.348 248.873 104.348 244.738V239.25C104.346 230.508 97.2778 223.42 88.5555 223.42Z" fill="#F15A29"/>
<path d="M171.164 239.243V244.738C171.164 248.869 168.151 252.563 164.03 252.964C159.329 253.4 155.372 249.706 155.372 245.084C155.372 249.452 151.832 253 147.475 253C143.119 253 139.579 249.452 139.579 245.084C139.579 249.706 135.622 253.4 130.902 252.964C126.799 252.563 123.786 248.869 123.786 244.738V239.243C123.786 236.441 124.512 233.802 125.801 231.509C126.509 230.235 127.38 229.071 128.415 228.052C131.265 225.195 135.204 223.411 139.579 223.411H155.372C159.474 223.411 163.213 224.994 166.027 227.56C169.186 230.454 171.164 234.621 171.164 239.243Z" fill="#F15A29"/>
<path opacity="0.2" d="M228 170.949C228 200.774 207.651 210.327 207.651 210.327V167.6C207.651 190.911 195.216 211.31 176.628 222.465C173.288 224.485 169.748 226.195 166.027 227.56C169.186 230.454 171.164 234.621 171.164 239.243V244.738C171.164 248.869 168.151 252.563 164.03 252.964C159.329 253.4 155.372 249.706 155.372 245.084C155.372 249.452 151.832 253 147.475 253C143.119 253 139.579 249.452 139.579 245.084C139.579 249.706 135.622 253.4 130.902 252.964C126.799 252.563 123.786 248.869 123.786 244.738V239.243C123.786 236.44 124.512 233.802 125.801 231.509H114.056V38.782H172.217C174.305 31.4121 183.871 0.00365448 194.672 0.00365448C207.106 0.00365448 207.687 31.3939 207.651 38.782V80.5083C212.661 88.7334 215.547 98.378 215.547 108.714C215.547 118.959 212.716 128.549 207.76 136.738C209.357 137.12 228 142.379 228 170.949Z" fill="#773600"/>
</svg>
