<svg width="228" height="253" viewBox="0 0 228 253" fill="none" xmlns="http://www.w3.org/2000/svg">
<path d="M207.651 38.782V167.6C207.651 190.911 195.217 211.31 176.628 222.465C173.288 224.485 169.749 226.195 166.027 227.56C159.147 230.126 151.687 231.509 143.917 231.509H84.2499C76.4624 231.509 69.0199 230.108 62.1219 227.542C58.4006 226.177 54.8427 224.467 51.5026 222.447C32.9326 211.274 20.498 190.893 20.498 167.6V38.782H207.651Z" fill="#DF7C00"/>
<path d="M20.4961 40.3214C20.4961 40.3214 19.367 0 33.4661 0C45.6992 0 56.3547 40.3214 56.3547 40.3214H20.4961Z" fill="#DF7C00"/>
<path d="M207.651 38.782C207.651 39.7646 207.633 40.3287 207.633 40.3287H171.781C171.781 40.3287 171.927 39.7646 172.217 38.782C174.305 31.4121 183.871 0.00366211 194.672 0.00366211C207.106 0.00366211 207.687 31.3939 207.651 38.782Z" fill="#DF7C00"/>
<path d="M176.628 206.015V222.465C173.288 224.485 169.748 226.195 166.027 227.56C159.147 230.126 151.687 231.509 143.917 231.509H84.2497C76.4622 231.509 69.0197 230.108 62.1217 227.542C58.4004 226.177 54.8425 224.467 51.5024 222.447V206.015C51.5024 189.273 58.0555 174.06 68.6929 162.814C77.2246 153.843 88.3703 147.383 100.914 144.69C103.201 144.199 105.543 143.835 107.921 143.616C109.936 143.416 111.987 143.307 114.056 143.307C116.144 143.307 118.195 143.416 120.228 143.616C122.606 143.835 124.93 144.199 127.217 144.69C139.76 147.383 150.906 153.843 159.42 162.814C170.075 174.06 176.628 189.273 176.628 206.015Z" fill="#FCB949"/>
<g opacity="0.32">
<path d="M158.318 191.812C158.318 196.678 154.382 200.623 149.528 200.623H146.439C141.585 200.623 137.649 196.678 137.649 191.812H158.318Z" fill="#DF7C00"/>
<path d="M124.4 191.812C124.4 196.678 120.464 200.623 115.61 200.623H112.522C107.668 200.623 103.733 196.678 103.733 191.812H124.4Z" fill="#DF7C00"/>
<path d="M90.4815 191.812C90.4815 196.678 86.546 200.623 81.6902 200.623H78.6025C73.7485 200.623 69.813 196.678 69.813 191.812H90.4815Z" fill="#DF7C00"/>
<path d="M141.358 214.609C141.358 219.475 137.422 223.42 132.568 223.42H129.481C124.627 223.42 120.691 219.475 120.691 214.609H141.358Z" fill="#DF7C00"/>
<path d="M107.44 214.609C107.44 219.475 103.504 223.42 98.6502 223.42H95.5624C90.7084 223.42 86.7729 219.475 86.7729 214.609H107.44Z" fill="#DF7C00"/>
<path d="M141.358 169.016C141.358 173.882 137.422 177.827 132.568 177.827H129.481C124.627 177.827 120.691 173.882 120.691 169.016H141.358Z" fill="#DF7C00"/>
<path d="M107.44 169.016C107.44 173.882 103.504 177.827 98.6502 177.827H95.5624C90.7084 177.827 86.7729 173.882 86.7729 169.016H107.44Z" fill="#DF7C00"/>
</g>
<path d="M120.627 108.714C120.627 118.086 118.249 126.911 114.074 134.609C104.907 151.441 87.0996 162.869 66.6053 162.869C36.7806 162.869 12.5833 138.63 12.5833 108.714C12.5833 78.7977 36.7806 54.559 66.6053 54.559C87.0996 54.559 104.907 65.9868 114.074 82.8193C118.249 90.5167 120.627 99.3424 120.627 108.714Z" fill="#773600"/>
<path d="M107 115.254C110.592 92.9075 95.4334 71.873 73.1419 68.272C50.8505 64.671 29.8677 79.867 26.2755 102.213C22.6833 124.56 37.842 145.594 60.1335 149.195C82.4249 152.796 103.408 137.6 107 115.254Z" fill="#FAF6CD"/>
<path d="M93.7812 115.071C97.2992 100.025 87.9838 84.9691 72.9747 81.4425C57.9656 77.9159 42.9466 87.2542 39.4286 102.3C35.9107 117.346 45.2261 132.402 60.2351 135.929C75.2442 139.455 90.2633 130.117 93.7812 115.071Z" fill="black"/>
<path d="M72.3906 93.5229C72.3906 99.6499 77.3463 104.618 83.4583 104.618C89.5702 104.618 94.5259 99.6499 94.5259 93.5229C94.5259 87.3959 89.5702 82.428 83.4583 82.428C77.3463 82.4299 72.3906 87.3959 72.3906 93.5229Z" fill="#FAF6CD"/>
<path d="M215.547 108.714C215.547 118.959 212.715 128.549 207.76 136.738C207.723 136.792 207.687 136.847 207.651 136.92C198.157 152.478 181.057 162.869 161.525 162.869C160.817 162.869 160.109 162.851 159.419 162.814C146.477 162.323 134.696 157.264 125.656 149.203C123.695 147.474 121.88 145.6 120.228 143.616C117.868 140.832 115.817 137.811 114.074 134.609L114.056 134.59C113.312 133.226 112.64 131.843 112.023 130.405C109.119 123.763 107.503 116.43 107.503 108.714C107.503 99.3424 109.881 90.535 114.056 82.8375L114.074 82.8193C123.223 65.9868 141.031 54.559 161.525 54.559C181.057 54.559 198.157 64.9496 207.651 80.5083C212.661 88.7334 215.547 98.378 215.547 108.714Z" fill="#773600"/>
<path d="M201.881 115.374C205.557 93.0416 190.477 71.9502 168.199 68.2654C145.921 64.5807 124.881 79.6978 121.206 102.031C117.53 124.363 132.61 145.455 154.888 149.139C177.166 152.824 198.205 137.707 201.881 115.374Z" fill="#FAF6CD"/>
<path d="M181.25 128.5C192.151 117.573 192.151 99.8555 181.25 88.928C170.349 78.0005 152.676 78.0006 141.775 88.9281C130.874 99.8556 130.874 117.573 141.775 128.5C152.676 139.428 170.349 139.428 181.25 128.5Z" fill="black"/>
<path d="M178.364 104.618C184.476 104.618 189.431 99.6505 189.431 93.523C189.431 87.3954 184.476 82.4281 178.364 82.4281C172.251 82.4281 167.296 87.3954 167.296 93.523C167.296 99.6505 172.251 104.618 178.364 104.618Z" fill="#FAF6CD"/>
<path d="M215.547 108.714C215.547 118.959 212.715 128.549 207.76 136.738C207.723 136.792 207.687 136.847 207.651 136.92C198.157 152.478 181.057 162.869 161.525 162.869C160.817 162.869 160.109 162.851 159.419 162.814C146.477 162.323 134.696 157.264 125.656 149.203C123.695 147.474 121.88 145.6 120.228 143.616C117.868 140.832 115.817 137.811 114.074 134.609C104.907 151.441 87.0996 162.869 66.6053 162.869C36.7806 162.869 12.5833 138.63 12.5833 108.714H215.547Z" fill="#773600"/>
<path d="M121.733 130.405H106.396C101.3 130.405 97.7244 135.439 99.3908 140.264L107.06 162.498C109.36 169.167 118.771 169.167 121.072 162.498L128.742 140.264C130.404 135.437 126.828 130.405 121.733 130.405Z" fill="#F15A29"/>
<path d="M20.3509 136.698V210.331C20.3509 210.331 0 200.77 0 170.941C0 141.112 20.3509 136.698 20.3509 136.698Z" fill="#773600"/>
<path d="M228 170.949C228 200.774 207.651 210.327 207.651 210.327V136.701C207.651 136.701 207.687 136.701 207.76 136.738C209.357 137.12 228 142.379 228 170.949Z" fill="#773600"/>
<path d="M88.5555 223.42H72.7646C64.0423 223.42 56.9736 230.508 56.9736 239.25V244.738C56.9736 248.873 59.9888 252.565 64.0931 252.956C68.8019 253.406 72.7646 249.706 72.7646 245.079C72.7646 249.45 76.2989 252.995 80.6609 252.995C85.0212 252.995 88.5573 249.452 88.5573 245.079C88.5573 249.706 92.52 253.408 97.2288 252.956C101.333 252.563 104.348 248.873 104.348 244.738V239.25C104.346 230.508 97.276 223.42 88.5555 223.42Z" fill="#F15A29"/>
<path d="M171.164 239.243V244.738C171.164 248.869 168.151 252.563 164.03 252.964C159.329 253.4 155.371 249.706 155.371 245.084C155.371 249.452 151.832 253 147.475 253C143.118 253 139.579 249.452 139.579 245.084C139.579 249.706 135.621 253.4 130.902 252.964C126.799 252.563 123.786 248.869 123.786 244.738V239.243C123.786 236.441 124.512 233.802 125.801 231.509C126.509 230.235 127.38 229.071 128.415 228.052C131.265 225.195 135.204 223.411 139.579 223.411H155.371C159.474 223.411 163.213 224.994 166.027 227.56C169.186 230.454 171.164 234.621 171.164 239.243Z" fill="#F15A29"/>
<path opacity="0.2" d="M228 170.949C228 200.774 207.651 210.327 207.651 210.327V167.6C207.651 190.911 195.216 211.31 176.628 222.465C173.288 224.485 169.748 226.195 166.027 227.56C169.186 230.454 171.164 234.621 171.164 239.243V244.738C171.164 248.869 168.151 252.563 164.03 252.964C159.329 253.4 155.372 249.706 155.372 245.084C155.372 249.452 151.832 253 147.475 253C143.119 253 139.579 249.452 139.579 245.084C139.579 249.706 135.622 253.4 130.902 252.964C126.799 252.563 123.786 248.869 123.786 244.738V239.243C123.786 236.441 124.512 233.802 125.801 231.509H114.056V38.782H172.217C174.305 31.4121 183.871 0.00366211 194.672 0.00366211C207.106 0.00366211 207.687 31.3939 207.651 38.782V80.5083C212.661 88.7334 215.547 98.378 215.547 108.714C215.547 118.959 212.716 128.549 207.76 136.738C209.357 137.12 228 142.379 228 170.949Z" fill="#773600"/>
</svg>
