<svg width="229" height="253" viewBox="0 0 229 253" fill="none" xmlns="http://www.w3.org/2000/svg">
<path d="M208.562 38.7817V167.599C208.562 190.91 196.073 211.309 177.403 222.463C174.048 224.483 170.493 226.194 166.755 227.559C159.845 230.124 152.352 231.507 144.549 231.507H84.6194C76.7977 231.507 69.3225 230.106 62.3943 227.54C58.6567 226.176 55.0832 224.465 51.7285 222.445C33.0769 211.272 20.5879 190.891 20.5879 167.599V38.7817H208.562Z" fill="#DF7C00"/>
<path d="M20.5861 40.3212C20.5861 40.3212 19.452 0 33.613 0C45.8996 0 56.6019 40.3212 56.6019 40.3212H20.5861Z" fill="#DF7C00"/>
<path d="M208.562 38.7817C208.562 39.7644 208.543 40.3285 208.543 40.3285H172.535C172.535 40.3285 172.681 39.7644 172.972 38.7817C175.069 31.4119 184.678 0.00365448 195.526 0.00365448C208.015 0.00365448 208.598 31.3937 208.562 38.7817Z" fill="#DF7C00"/>
<path d="M177.403 206.015V222.465C174.048 224.485 170.493 226.196 166.755 227.56C159.845 230.126 152.352 231.509 144.549 231.509H84.6194C76.7978 231.509 69.3226 230.108 62.3944 227.542C58.6568 226.177 55.0832 224.467 51.7285 222.447V206.015C51.7285 189.274 58.3103 174.061 68.9944 162.815C77.5635 153.844 88.7581 147.384 101.357 144.691C103.654 144.199 106.006 143.835 108.394 143.617C110.418 143.417 112.478 143.308 114.557 143.308C116.653 143.308 118.714 143.417 120.756 143.617C123.144 143.835 125.478 144.199 127.775 144.691C140.373 147.384 151.568 153.844 160.119 162.815C170.821 174.059 177.403 189.272 177.403 206.015Z" fill="#FCB949"/>
<g opacity="0.32">
<path d="M159.012 191.812C159.012 196.678 155.06 200.623 150.184 200.623H147.081C142.206 200.623 138.253 196.678 138.253 191.812H159.012Z" fill="#DF7C00"/>
<path d="M124.945 191.812C124.945 196.678 120.993 200.623 116.117 200.623H113.016C108.141 200.623 104.188 196.678 104.188 191.812H124.945Z" fill="#DF7C00"/>
<path d="M90.8786 191.812C90.8786 196.678 86.9258 200.623 82.0487 200.623H78.9474C74.0721 200.623 70.1194 196.678 70.1194 191.812H90.8786Z" fill="#DF7C00"/>
<path d="M141.978 214.608C141.978 219.474 138.025 223.419 133.15 223.419H130.049C125.173 223.419 121.221 219.474 121.221 214.608H141.978Z" fill="#DF7C00"/>
<path d="M107.911 214.608C107.911 219.474 103.958 223.419 99.0831 223.419H95.9818C91.1066 223.419 87.1538 219.474 87.1538 214.608H107.911Z" fill="#DF7C00"/>
<path d="M141.978 169.017C141.978 173.883 138.025 177.828 133.15 177.828H130.049C125.173 177.828 121.221 173.883 121.221 169.017H141.978Z" fill="#DF7C00"/>
<path d="M107.911 169.017C107.911 173.883 103.958 177.828 99.0831 177.828H95.9818C91.1066 177.828 87.1538 173.883 87.1538 169.017H107.911Z" fill="#DF7C00"/>
</g>
<path d="M119.745 121.019C126.544 91.8909 108.398 62.7765 79.2136 55.9902C50.0293 49.2039 20.8588 67.3156 14.0594 96.4437C7.26004 125.572 25.4066 154.686 54.5909 161.473C83.7752 168.259 112.946 150.147 119.745 121.019Z" fill="#773600"/>
<path d="M66.905 149.699C89.5822 149.699 107.966 131.35 107.966 108.717C107.966 86.0833 89.5822 67.7352 66.905 67.7352C44.2278 67.7352 25.8442 86.0833 25.8442 108.717C25.8442 131.35 44.2278 149.699 66.905 149.699Z" fill="#FAF6CD"/>
<path d="M94.1933 115.087C97.7267 100.042 88.3704 84.9856 73.2956 81.459C58.2207 77.9325 43.1357 87.2707 39.6023 102.317C36.069 117.362 45.4252 132.418 60.5001 135.945C75.575 139.472 90.66 130.133 94.1933 115.087Z" fill="black"/>
<path d="M72.7083 93.5223C72.7083 99.6492 77.6856 104.617 83.8244 104.617C89.9632 104.617 94.9406 99.6492 94.9406 93.5223C94.9406 87.3953 89.9632 82.4275 83.8244 82.4275C77.6856 82.4293 72.7083 87.3953 72.7083 93.5223Z" fill="#FAF6CD"/>
<path d="M216.493 108.715C216.493 118.96 213.649 128.55 208.671 136.739C208.635 136.793 208.598 136.848 208.562 136.921C199.026 152.479 181.852 162.87 162.234 162.87C161.523 162.87 160.812 162.851 160.119 162.815C147.119 162.324 135.287 157.265 126.207 149.204C124.238 147.475 122.415 145.601 120.756 143.617C118.385 140.833 116.325 137.812 114.575 134.61L114.557 134.591C113.809 133.227 113.135 131.844 112.515 130.406C109.598 123.764 107.975 116.431 107.975 108.715C107.975 99.3435 110.363 90.5361 114.557 82.8388L114.575 82.8205C123.764 65.9882 141.65 54.5604 162.234 54.5604C181.852 54.5604 199.026 64.951 208.562 80.5095C213.594 88.7328 216.493 98.3773 216.493 108.715Z" fill="#773600"/>
<path d="M162.226 149.699C184.904 149.699 203.287 131.35 203.287 108.717C203.287 86.0833 184.904 67.7351 162.226 67.7351C139.549 67.7351 121.166 86.0833 121.166 108.717C121.166 131.35 139.549 149.699 162.226 149.699Z" fill="#FAF6CD"/>
<path d="M182.047 128.502C192.996 117.574 192.996 99.8573 182.047 88.9299C171.099 78.0025 153.348 78.0025 142.399 88.9299C131.451 99.8573 131.451 117.574 142.399 128.502C153.348 139.429 171.099 139.429 182.047 128.502Z" fill="black"/>
<path d="M168.03 93.5223C168.03 99.6492 173.007 104.617 179.146 104.617C185.285 104.617 190.262 99.6492 190.262 93.5223C190.262 87.3953 185.285 82.4275 179.146 82.4275C173.007 82.4293 168.03 87.3953 168.03 93.5223Z" fill="#FAF6CD"/>
<path d="M122.267 130.404H106.863C101.745 130.404 98.1531 135.438 99.8268 140.263L107.53 162.497C109.84 169.166 119.292 169.166 121.603 162.497L129.306 140.263C130.977 135.438 127.385 130.404 122.267 130.404Z" fill="#F15A29"/>
<path d="M20.4401 136.697V210.33C20.4401 210.33 0 200.769 0 170.94C0 141.111 20.4401 136.697 20.4401 136.697Z" fill="#773600"/>
<path d="M229 170.949C229 200.774 208.562 210.328 208.562 210.328V136.702C208.562 136.702 208.598 136.702 208.671 136.739C210.276 137.121 229 142.38 229 170.949Z" fill="#773600"/>
<path d="M88.944 223.419H73.0838C64.3233 223.419 57.2236 230.506 57.2236 239.248V244.736C57.2236 248.871 60.252 252.561 64.3743 252.954C69.1037 253.404 73.0838 249.704 73.0838 245.077C73.0838 249.448 76.6336 252.992 81.0148 252.992C85.3942 252.992 88.9458 249.449 88.9458 245.077C88.9458 249.704 92.9259 253.406 97.6553 252.954C101.778 252.561 104.806 248.871 104.806 244.736V239.248C104.804 230.506 97.7028 223.419 88.944 223.419Z" fill="#F15A29"/>
<path d="M171.915 239.243V244.738C171.915 248.869 168.889 252.563 164.75 252.964C160.028 253.4 156.053 249.706 156.053 245.084C156.053 249.452 152.498 253 148.122 253C143.746 253 140.191 249.452 140.191 245.084C140.191 249.706 136.216 253.4 131.476 252.964C127.356 252.563 124.329 248.869 124.329 244.738V239.243C124.329 236.441 125.058 233.802 126.353 231.509C127.064 230.235 127.939 229.071 128.978 228.052C131.841 225.195 135.797 223.411 140.191 223.411H156.053C160.174 223.411 163.929 224.995 166.755 227.56C169.928 230.452 171.915 234.621 171.915 239.243Z" fill="#F15A29"/>
<path opacity="0.2" d="M229 170.949C229 200.774 208.562 210.328 208.562 210.328V167.601C208.562 190.911 196.073 211.31 177.403 222.465C174.048 224.485 170.493 226.196 166.755 227.56C169.928 230.454 171.915 234.621 171.915 239.243V244.738C171.915 248.869 168.889 252.563 164.75 252.964C160.028 253.4 156.053 249.706 156.053 245.084C156.053 249.452 152.498 253 148.122 253C143.746 253 140.191 249.452 140.191 245.084C140.191 249.706 136.216 253.4 131.476 252.964C127.356 252.563 124.329 248.869 124.329 244.738V239.243C124.329 236.441 125.058 233.802 126.353 231.509H114.557V38.7835H172.973C175.069 31.4137 184.678 0.00547028 195.526 0.00547028C208.015 0.00547028 208.598 31.3955 208.562 38.7835V80.5095C213.594 88.7346 216.493 98.3791 216.493 108.715C216.493 118.96 213.649 128.55 208.671 136.739C210.276 137.121 229 142.38 229 170.949Z" fill="#773600"/>
</svg>
