<svg width="229" height="253" viewBox="0 0 229 253" fill="none" xmlns="http://www.w3.org/2000/svg">
<path d="M208.562 38.782V167.6C208.562 190.911 196.073 211.31 177.403 222.465C174.048 224.485 170.493 226.195 166.755 227.56C159.845 230.126 152.352 231.509 144.548 231.509H84.6192C76.7976 231.509 69.3224 230.108 62.3942 227.542C58.6566 226.177 55.0831 224.467 51.7284 222.447C33.0768 211.274 20.5878 190.893 20.5878 167.6V38.782H208.562Z" fill="#DF7C00"/>
<path d="M20.5859 40.3214C20.5859 40.3214 19.4519 0 33.6129 0C45.8995 0 56.6018 40.3214 56.6018 40.3214H20.5859Z" fill="#DF7C00"/>
<path d="M208.562 38.782C208.562 39.7646 208.543 40.3287 208.543 40.3287H172.535C172.535 40.3287 172.681 39.7646 172.972 38.782C175.069 31.4121 184.678 0.00366211 195.526 0.00366211C208.015 0.00366211 208.598 31.3939 208.562 38.782Z" fill="#DF7C00"/>
<path d="M177.403 206.015V222.465C174.048 224.485 170.493 226.195 166.755 227.56C159.845 230.126 152.352 231.509 144.548 231.509H84.6193C76.7976 231.509 69.3224 230.108 62.3942 227.542C58.6566 226.177 55.0831 224.467 51.7284 222.447V206.015C51.7284 183.523 63.5793 163.797 81.4104 152.751C86.0778 149.84 91.1464 147.529 96.5431 145.946C99.5514 145.036 102.687 144.344 105.878 143.907C108.722 143.507 111.621 143.307 114.557 143.307H114.575C117.528 143.307 120.427 143.507 123.253 143.907C126.371 144.344 129.416 144.999 132.351 145.873C137.857 147.474 143.053 149.84 147.812 152.824C165.588 163.888 177.403 183.578 177.403 206.015Z" fill="#FCB949"/>
<g opacity="0.32">
<path d="M159.012 191.812C159.012 196.678 155.059 200.623 150.184 200.623H147.081C142.206 200.623 138.253 196.678 138.253 191.812H159.012Z" fill="#DF7C00"/>
<path d="M124.945 191.812C124.945 196.678 120.992 200.623 116.117 200.623H113.016C108.141 200.623 104.188 196.678 104.188 191.812H124.945Z" fill="#DF7C00"/>
<path d="M90.8783 191.812C90.8783 196.678 86.9256 200.623 82.0503 200.623H78.949C74.0737 200.623 70.121 196.678 70.121 191.812H90.8783Z" fill="#DF7C00"/>
<path d="M141.978 214.609C141.978 219.475 138.025 223.42 133.15 223.42H130.048C125.173 223.42 121.22 219.475 121.22 214.609H141.978Z" fill="#DF7C00"/>
<path d="M107.911 214.609C107.911 219.475 103.958 223.42 99.0828 223.42H95.9815C91.1062 223.42 87.1534 219.475 87.1534 214.609H107.911Z" fill="#DF7C00"/>
<path d="M141.978 169.016C141.978 173.882 138.025 177.827 133.15 177.827H130.048C125.173 177.827 121.22 173.882 121.22 169.016H141.978Z" fill="#DF7C00"/>
<path d="M107.911 169.016C107.911 173.882 103.958 177.827 99.0828 177.827H95.9815C91.1062 177.827 87.1534 173.882 87.1534 169.016H107.911Z" fill="#DF7C00"/>
</g>
<path d="M120.792 94.078C121.917 103.382 120.604 112.43 117.363 120.573C110.241 138.385 93.8539 151.867 73.4175 154.325C43.6771 157.905 16.6406 136.743 13.0543 107.044L120.792 94.078Z" fill="#773600"/>
<path d="M94.7928 130.642C88.6668 136.319 80.7541 140.177 71.8385 141.251C59.8053 142.688 48.3554 138.776 39.8957 131.388C32.5299 124.964 27.4249 115.92 26.1669 105.457L107.701 95.6484C109.342 109.205 104.146 122.034 94.7928 130.642Z" fill="#FAF6CD"/>
<path d="M120.801 94.0834L114.529 94.8477H114.475L108.057 95.612L107.947 95.6302L107.71 95.6666L95.6407 97.1042L94.7655 97.2133L93.0699 97.4135L39.1026 103.928L26.1578 105.475L13.0488 107.058V107.04L11.572 94.7021L109.552 82.9103L114.511 82.3098L119.452 82.9103L120.801 94.0834Z" fill="#773600"/>
<path d="M215.946 107.04V107.058C214.998 114.901 212.409 122.162 208.562 128.513C197.859 146.2 177.458 156.955 155.579 154.316C152.917 153.989 150.328 153.479 147.812 152.824C142.215 151.296 137.019 148.93 132.351 145.873C129.598 144.071 127.046 142.051 124.675 139.813C120.664 135.992 117.255 131.588 114.575 126.747C114.538 126.693 114.52 126.656 114.502 126.602C113.426 124.655 112.46 122.653 111.639 120.579C111.129 119.287 110.655 117.958 110.254 116.612C108.923 112.408 108.121 108.004 107.884 103.473C107.792 101.562 107.792 99.6518 107.884 97.7047C107.92 97.0132 107.975 96.3035 108.048 95.612C108.102 95.1024 108.157 94.5929 108.212 94.0834L114.502 94.8477H114.575L120.938 95.612H120.956L121.047 95.6302L121.302 95.6484V95.6666L130.82 96.7948L133.354 97.1042L134.247 97.2133L135.943 97.4135L145.989 98.6327L202.837 105.457L202.855 105.475L208.562 106.148L215.946 107.04Z" fill="#773600"/>
<path d="M202.837 105.457C201.451 116.976 195.416 126.784 186.829 133.226C178.643 139.431 168.141 142.561 157.165 141.251C147.21 140.05 138.514 135.391 132.169 128.622C124.11 120.087 119.789 108.186 121.302 95.6484L202.837 105.457Z" fill="#FAF6CD"/>
<path d="M217.441 94.7021L215.946 107.04V107.058L208.562 106.166L202.855 105.475H202.837L189.892 103.928L145.989 98.6327L135.943 97.4135L134.247 97.2133L133.354 97.1042L130.82 96.7948L121.302 95.6666H121.284L121.047 95.6302L120.956 95.612H120.938L114.575 94.8477H114.447L108.212 94.0834H108.193L109.543 82.9103L114.52 82.3098H114.575L119.443 82.9103L208.562 93.6285L217.441 94.7021Z" fill="#773600"/>
<path d="M122.267 116.604H106.863C101.745 116.604 98.153 121.638 99.8267 126.464L107.53 148.697C109.84 155.368 119.291 155.368 121.603 148.697L129.306 126.464C130.976 121.638 127.385 116.604 122.267 116.604Z" fill="#F15A29"/>
<path d="M20.4401 136.698V210.331C20.4401 210.331 0 200.77 0 170.941C0 141.112 20.4401 136.698 20.4401 136.698Z" fill="#773600"/>
<path d="M229 170.949C229 200.774 208.562 210.327 208.562 210.327V136.701C208.562 136.701 229 141.105 229 170.949Z" fill="#773600"/>
<path d="M88.9439 223.42H73.0837C64.3231 223.42 57.2235 230.508 57.2235 239.25V244.738C57.2235 248.873 60.2519 252.565 64.3742 252.956C69.1036 253.406 73.0837 249.706 73.0837 245.079C73.0837 249.45 76.6335 252.995 81.0147 252.995C85.3941 252.995 88.9457 249.452 88.9457 245.079C88.9457 249.706 92.9258 253.408 97.6552 252.956C101.778 252.563 104.806 248.873 104.806 244.738V239.25C104.804 230.508 97.7026 223.42 88.9439 223.42Z" fill="#F15A29"/>
<path d="M171.915 239.243V244.738C171.915 248.869 168.888 252.563 164.75 252.964C160.028 253.4 156.053 249.706 156.053 245.084C156.053 249.452 152.498 253 148.122 253C143.746 253 140.191 249.452 140.191 245.084C140.191 249.706 136.216 253.4 131.476 252.964C127.355 252.563 124.329 248.869 124.329 244.738V239.243C124.329 236.441 125.058 233.802 126.353 231.509C127.064 230.235 127.939 229.071 128.978 228.052C131.841 225.195 135.797 223.411 140.191 223.411H156.053C160.173 223.411 163.929 224.994 166.755 227.56C169.928 230.454 171.915 234.621 171.915 239.243Z" fill="#F15A29"/>
<path d="M41.9122 67.9249L107.975 61.252V43.5897L41.8484 61.645L41.9122 67.9249Z" fill="#773600"/>
<path d="M187.219 67.9249L121.157 61.252V43.5897L187.281 61.645L187.219 67.9249Z" fill="#773600"/>
<path d="M94.7929 130.642C88.6669 136.319 80.7541 140.177 71.8386 141.251C59.8053 142.688 48.3555 138.776 39.8958 131.388C42.3753 118.468 53.7522 108.714 67.4081 108.714C71.7656 108.714 75.9043 109.715 79.5872 111.48C86.1691 114.664 91.3288 120.324 93.8084 127.275C94.2095 128.367 94.5376 129.495 94.7929 130.642Z" fill="black"/>
<path d="M84.3349 132.603C90.4742 132.603 95.4511 127.636 95.4511 121.508C95.4511 115.381 90.4742 110.414 84.3349 110.414C78.1956 110.414 73.2188 115.381 73.2188 121.508C73.2188 127.636 78.1956 132.603 84.3349 132.603Z" fill="#FAF6CD"/>
<path d="M186.829 133.226C178.643 139.431 168.141 142.561 157.165 141.251C147.21 140.05 138.514 135.391 132.169 128.622C135.651 117.103 146.335 108.714 159.007 108.714C163.364 108.714 167.503 109.715 171.186 111.48C177.768 114.664 182.927 120.324 185.407 127.275C186.1 129.168 186.574 131.169 186.829 133.226Z" fill="black"/>
<path d="M175.932 132.603C182.071 132.603 187.048 127.636 187.048 121.508C187.048 115.381 182.071 110.414 175.932 110.414C169.792 110.414 164.815 115.381 164.815 121.508C164.815 127.636 169.792 132.603 175.932 132.603Z" fill="#FAF6CD"/>
<path opacity="0.2" d="M229 170.949C229 200.774 208.562 210.327 208.562 210.327V167.6C208.562 190.911 196.073 211.31 177.403 222.465C174.048 224.485 170.493 226.195 166.755 227.56C169.928 230.454 171.915 234.621 171.915 239.243V244.738C171.915 248.869 168.888 252.563 164.75 252.964C160.028 253.4 156.053 249.706 156.053 245.084C156.053 249.452 152.498 253 148.122 253C143.746 253 140.191 249.452 140.191 245.084C140.191 249.706 136.216 253.4 131.476 252.964C127.355 252.563 124.329 248.869 124.329 244.738V239.243C124.329 236.441 125.058 233.802 126.353 231.509H114.575V38.782H172.972C175.069 31.4121 184.678 0.00366211 195.526 0.00366211C208.015 0.00366211 208.598 31.3939 208.562 38.782V93.6285L217.441 94.7021L215.946 107.04V107.058C214.998 114.901 212.409 122.162 208.562 128.513V136.701C208.562 136.701 229 141.105 229 170.949Z" fill="#773600"/>
</svg>
