<svg width="229" height="253" viewBox="0 0 229 253" fill="none" xmlns="http://www.w3.org/2000/svg">
<path d="M208.562 38.7817V167.599C208.562 190.91 196.073 211.309 177.403 222.463C174.048 224.483 170.493 226.194 166.755 227.559C159.845 230.124 152.352 231.507 144.549 231.507H84.6193C76.7977 231.507 69.3225 230.106 62.3943 227.54C58.6567 226.176 55.0832 224.465 51.7285 222.445C33.0769 211.272 20.5879 190.891 20.5879 167.599V38.7817H208.562Z" fill="#DF7C00"/>
<path d="M20.5861 40.3212C20.5861 40.3212 19.452 0 33.613 0C45.8997 0 56.6019 40.3212 56.6019 40.3212H20.5861Z" fill="#DF7C00"/>
<path d="M208.562 38.7817C208.562 39.7644 208.543 40.3285 208.543 40.3285H172.535C172.535 40.3285 172.681 39.7644 172.972 38.7817C175.069 31.4119 184.678 0.00366211 195.526 0.00366211C208.015 0.00366211 208.598 31.3937 208.562 38.7817Z" fill="#DF7C00"/>
<path d="M177.403 206.015V222.465C174.048 224.485 170.493 226.196 166.755 227.56C159.845 230.126 152.352 231.509 144.549 231.509H84.6194C76.7978 231.509 69.3226 230.108 62.3943 227.542C58.6567 226.177 55.0832 224.467 51.7285 222.447V206.015C51.7285 174.316 75.2845 148.112 105.878 143.908C108.722 143.508 111.621 143.308 114.557 143.308H114.575C117.529 143.308 120.427 143.508 123.253 143.908C153.847 148.128 177.403 174.334 177.403 206.015Z" fill="#FCB949"/>
<g opacity="0.32">
<path d="M159.012 191.812C159.012 196.678 155.059 200.623 150.184 200.623H147.081C142.206 200.623 138.253 196.678 138.253 191.812H159.012Z" fill="#DF7C00"/>
<path d="M124.945 191.812C124.945 196.678 120.993 200.623 116.117 200.623H113.016C108.141 200.623 104.188 196.678 104.188 191.812H124.945Z" fill="#DF7C00"/>
<path d="M90.8784 191.812C90.8784 196.678 86.9257 200.623 82.0504 200.623H78.9491C74.0738 200.623 70.1211 196.678 70.1211 191.812H90.8784Z" fill="#DF7C00"/>
<path d="M141.978 214.608C141.978 219.474 138.025 223.419 133.15 223.419H130.048C125.173 223.419 121.22 219.474 121.22 214.608H141.978Z" fill="#DF7C00"/>
<path d="M107.911 214.608C107.911 219.474 103.958 223.419 99.0829 223.419H95.9816C91.1063 223.419 87.1536 219.474 87.1536 214.608H107.911Z" fill="#DF7C00"/>
<path d="M141.978 169.017C141.978 173.883 138.025 177.828 133.15 177.828H130.048C125.173 177.828 121.22 173.883 121.22 169.017H141.978Z" fill="#DF7C00"/>
<path d="M107.911 169.017C107.911 173.883 103.958 177.828 99.0829 177.828H95.9816C91.1063 177.828 87.1536 173.883 87.1536 169.017H107.911Z" fill="#DF7C00"/>
</g>
<path d="M121.157 94.8761C121.157 104.248 118.768 113.073 114.575 120.771C105.368 137.603 87.4818 149.031 66.8977 149.031C36.9422 149.031 12.6387 124.792 12.6387 94.8761H121.157Z" fill="#773600"/>
<path d="M107.975 94.8761C107.975 117.513 89.5786 135.856 66.8977 135.856C44.2351 135.856 25.8389 117.513 25.8389 94.8761H107.975Z" fill="#FAF6CD"/>
<path d="M94.9388 94.8761C94.9388 110.325 82.395 122.863 66.8976 122.863C51.4185 122.863 38.8748 110.325 38.8748 94.8761H94.9388Z" fill="black"/>
<path d="M216.493 94.8834C216.493 105.219 213.594 114.864 208.562 123.089C199.026 138.647 181.852 149.038 162.234 149.038C148.396 149.038 135.779 143.87 126.207 135.372C121.54 131.241 117.583 126.292 114.575 120.778C113.827 119.413 113.153 118.03 112.533 116.611C109.598 109.951 107.975 102.599 107.975 94.8834H216.493Z" fill="#773600"/>
<path d="M203.293 94.8761C203.293 117.513 184.896 135.856 162.234 135.856C139.553 135.856 121.157 117.513 121.157 94.8761H203.293Z" fill="#FAF6CD"/>
<path d="M190.257 94.8761C190.257 110.325 177.713 122.863 162.234 122.863C146.737 122.863 134.193 110.325 134.193 94.8761H190.257Z" fill="black"/>
<path d="M83.8227 122.863C89.962 122.863 94.9389 117.896 94.9389 111.769C94.9389 105.641 89.962 100.674 83.8227 100.674C77.6834 100.674 72.7065 105.641 72.7065 111.769C72.7065 117.896 77.6834 122.863 83.8227 122.863Z" fill="#FAF6CD"/>
<path d="M179.431 122.863C185.57 122.863 190.547 117.896 190.547 111.769C190.547 105.641 185.57 100.674 179.431 100.674C173.291 100.674 168.314 105.641 168.314 111.769C168.314 117.896 173.291 122.863 179.431 122.863Z" fill="#FAF6CD"/>
<path d="M216.493 82.4384H12.6387V94.8852H216.493V82.4384Z" fill="#773600"/>
<path d="M122.267 116.604H106.863C101.745 116.604 98.1531 121.637 99.8268 126.463L107.53 148.696C109.84 155.365 119.292 155.365 121.603 148.696L129.306 126.463C130.977 121.637 127.385 116.604 122.267 116.604Z" fill="#F15A29"/>
<path d="M20.4401 136.697V210.33C20.4401 210.33 0 200.769 0 170.94C0 141.111 20.4401 136.697 20.4401 136.697Z" fill="#773600"/>
<path d="M229 170.949C229 200.774 208.562 210.328 208.562 210.328V136.702C208.562 136.702 229 141.104 229 170.949Z" fill="#773600"/>
<path d="M88.944 223.419H73.0838C64.3233 223.419 57.2236 230.506 57.2236 239.248V244.736C57.2236 248.871 60.252 252.561 64.3743 252.954C69.1037 253.404 73.0838 249.704 73.0838 245.077C73.0838 249.448 76.6336 252.993 81.0148 252.993C85.3942 252.993 88.9458 249.45 88.9458 245.077C88.9458 249.704 92.9259 253.406 97.6554 252.954C101.778 252.561 104.806 248.871 104.806 244.736V239.248C104.804 230.506 97.7028 223.419 88.944 223.419Z" fill="#F15A29"/>
<path d="M171.915 239.243V244.738C171.915 248.869 168.889 252.563 164.75 252.964C160.028 253.4 156.053 249.706 156.053 245.084C156.053 249.452 152.498 253 148.122 253C143.746 253 140.191 249.452 140.191 245.084C140.191 249.706 136.217 253.4 131.476 252.964C127.356 252.563 124.329 248.869 124.329 244.738V239.243C124.329 236.441 125.058 233.802 126.353 231.509C127.064 230.235 127.939 229.071 128.978 228.052C131.841 225.195 135.797 223.411 140.191 223.411H156.053C160.174 223.411 163.929 224.995 166.755 227.56C169.928 230.452 171.915 234.621 171.915 239.243Z" fill="#F15A29"/>
<path d="M107.911 76.3405L41.8484 69.6677V52.0074L107.975 70.0607L107.911 76.3405Z" fill="#773600"/>
<path d="M121.218 76.3405L187.281 69.6677V52.0074L121.156 70.0607L121.218 76.3405Z" fill="#773600"/>
<path opacity="0.2" d="M229 170.949C229 200.774 208.562 210.328 208.562 210.328V167.601C208.562 190.911 196.073 211.31 177.403 222.465C174.048 224.485 170.493 226.196 166.755 227.56C169.928 230.454 171.915 234.621 171.915 239.243V244.738C171.915 248.869 168.888 252.563 164.75 252.964C160.028 253.4 156.053 249.706 156.053 245.084C156.053 249.452 152.498 253 148.122 253C143.746 253 140.191 249.452 140.191 245.084C140.191 249.706 136.216 253.4 131.476 252.964C127.355 252.563 124.329 248.869 124.329 244.738V239.243C124.329 236.441 125.058 233.802 126.353 231.509H114.575V38.7835H172.972C175.069 31.4137 184.678 0.00546265 195.526 0.00546265C208.015 0.00546265 208.598 31.3955 208.562 38.7835V82.4384H216.493V94.8852C216.493 105.221 213.594 114.866 208.562 123.091V136.702C208.562 136.702 229 141.104 229 170.949Z" fill="#773600"/>
</svg>
