<svg width="229" height="253" viewBox="0 0 229 253" fill="none" xmlns="http://www.w3.org/2000/svg">
<path d="M208.562 38.7817V167.599C208.562 190.91 196.072 211.309 177.403 222.463C174.048 224.483 170.493 226.194 166.755 227.559C159.845 230.124 152.351 231.507 144.548 231.507H84.6182C76.7965 231.507 69.3212 230.106 62.3929 227.54C58.6553 226.176 55.0818 224.465 51.7271 222.445C33.0754 211.272 20.5862 190.891 20.5862 167.599V38.7817H208.562Z" fill="#DF7C00"/>
<path d="M20.5844 40.3212C20.5844 40.3212 19.4503 0 33.6114 0C45.8982 0 56.6006 40.3212 56.6006 40.3212H20.5844Z" fill="#DF7C00"/>
<path d="M208.562 38.7817C208.562 39.7644 208.543 40.3285 208.543 40.3285H172.535C172.535 40.3285 172.68 39.7644 172.972 38.7817C175.069 31.4119 184.677 0.00366211 195.526 0.00366211C208.015 0.00366211 208.598 31.3937 208.562 38.7817Z" fill="#DF7C00"/>
<path d="M177.403 206.015V222.465C174.048 224.485 170.493 226.196 166.755 227.56C159.845 230.126 152.351 231.509 144.548 231.509H84.6182C76.7965 231.509 69.3212 230.108 62.3929 227.542C58.6553 226.177 55.0818 224.467 51.7271 222.447V206.015C51.7271 189.274 58.3089 174.061 68.9931 162.815C77.5623 153.844 88.7569 147.384 101.355 144.691C103.653 144.199 106.005 143.835 108.393 143.617C110.417 143.417 112.477 143.308 114.574 143.308C116.652 143.308 118.713 143.417 120.736 143.617C123.125 143.835 125.477 144.199 127.774 144.691C140.373 147.384 151.567 153.844 160.137 162.815C170.821 174.059 177.403 189.272 177.403 206.015Z" fill="#FCB949"/>
<g opacity="0.32">
<path d="M159.012 191.812C159.012 196.678 155.059 200.623 150.183 200.623H147.082C142.207 200.623 138.254 196.678 138.254 191.812H159.012Z" fill="#DF7C00"/>
<path d="M124.944 191.812C124.944 196.678 120.992 200.623 116.116 200.623H113.015C108.14 200.623 104.187 196.678 104.187 191.812H124.944Z" fill="#DF7C00"/>
<path d="M90.8773 191.812C90.8773 196.678 86.9245 200.623 82.0492 200.623H78.9479C74.0725 200.623 70.1198 196.678 70.1198 191.812H90.8773Z" fill="#DF7C00"/>
<path d="M141.979 214.608C141.979 219.474 138.026 223.419 133.151 223.419H130.048C125.172 223.419 121.22 219.474 121.22 214.608H141.979Z" fill="#DF7C00"/>
<path d="M107.912 214.608C107.912 219.474 103.959 223.419 99.0837 223.419H95.9824C91.107 223.419 87.1543 219.474 87.1543 214.608H107.912Z" fill="#DF7C00"/>
<path d="M141.979 169.017C141.979 173.883 138.026 177.828 133.151 177.828H130.048C125.172 177.828 121.22 173.883 121.22 169.017H141.979Z" fill="#DF7C00"/>
<path d="M107.912 169.017C107.912 173.883 103.959 177.828 99.0837 177.828H95.9824C91.107 177.828 87.1543 173.883 87.1543 169.017H107.912Z" fill="#DF7C00"/>
</g>
<path d="M120.46 117.325C125.215 87.7958 105.086 60.0101 75.5003 55.2636C45.9142 50.5171 18.0747 70.6072 13.319 100.136C8.56327 129.665 28.6923 157.451 58.2784 162.197C87.8644 166.944 115.704 146.854 120.46 117.325Z" fill="#773600"/>
<path opacity="0.25" d="M66.9036 149.699C89.581 149.699 107.965 131.35 107.965 108.717C107.965 86.0833 89.581 67.7351 66.9036 67.7351C44.2262 67.7351 25.8425 86.0833 25.8425 108.717C25.8425 131.35 44.2262 149.699 66.9036 149.699Z" fill="#DF7C00"/>
<path d="M216.493 108.715C216.493 118.96 213.648 128.55 208.671 136.739C208.634 136.793 208.598 136.848 208.561 136.921C199.026 152.479 181.851 162.87 162.233 162.87C161.522 162.87 160.829 162.851 160.136 162.815C147.118 162.342 135.286 157.283 126.206 149.204C124.237 147.475 122.414 145.601 120.736 143.617C118.403 140.851 116.324 137.83 114.574 134.628V134.61C113.826 133.245 113.133 131.844 112.514 130.406C109.596 123.764 107.974 116.431 107.974 108.715C107.974 99.3435 110.362 90.5179 114.574 82.8205V82.8024C123.781 65.97 141.667 54.5604 162.233 54.5604C181.851 54.5604 199.026 64.951 208.561 80.5095C213.594 88.7328 216.493 98.3773 216.493 108.715Z" fill="#773600"/>
<path opacity="0.25" d="M162.226 149.699C184.903 149.699 203.287 131.35 203.287 108.717C203.287 86.0833 184.903 67.7351 162.226 67.7351C139.548 67.7351 121.165 86.0833 121.165 108.717C121.165 131.35 139.548 149.699 162.226 149.699Z" fill="#DF7C00"/>
<path d="M122.268 130.404H106.863C101.747 130.404 98.1556 135.437 99.8275 140.263L107.531 162.497C109.841 169.166 119.292 169.166 121.604 162.497L129.307 140.263C130.976 135.437 127.384 130.404 122.268 130.404Z" fill="#F15A29"/>
<path d="M20.4403 136.697V210.33C20.4403 210.33 0 200.769 0 170.94C0 141.111 20.4403 136.697 20.4403 136.697Z" fill="#773600"/>
<path d="M229 170.949C229 200.774 208.562 210.328 208.562 210.328V136.702C208.562 136.702 208.598 136.702 208.671 136.739C210.275 137.121 229 142.38 229 170.949Z" fill="#773600"/>
<path d="M88.9428 223.419H73.0825C64.3219 223.419 57.2222 230.506 57.2222 239.248V244.736C57.2222 248.871 60.2506 252.561 64.3729 252.954C69.1024 253.404 73.0825 249.704 73.0825 245.077C73.0825 249.448 76.6323 252.993 81.0136 252.993C85.393 252.993 88.9447 249.45 88.9447 245.077C88.9447 249.704 92.9248 253.406 97.6543 252.954C101.777 252.561 104.805 248.871 104.805 244.736V239.248C104.803 230.506 97.7035 223.419 88.9428 223.419Z" fill="#F15A29"/>
<path d="M171.915 239.243V244.738C171.915 248.869 168.888 252.563 164.749 252.964C160.027 253.4 156.052 249.706 156.052 245.084C156.052 249.452 152.497 253 148.121 253C143.746 253 140.19 249.452 140.19 245.084C140.19 249.706 136.216 253.4 131.475 252.964C127.355 252.563 124.328 248.869 124.328 244.738V239.243C124.328 236.441 125.057 233.802 126.352 231.509C127.063 230.235 127.938 229.071 128.977 228.052C131.84 225.195 135.796 223.411 140.19 223.411H156.052C160.173 223.411 163.929 224.995 166.755 227.56C169.927 230.452 171.915 234.621 171.915 239.243Z" fill="#F15A29"/>
<path d="M91.3204 108.87C91.3204 108.87 65.7331 122.075 42.4868 108.717C42.4868 108.717 47.0795 128.568 67.3448 128.568C87.61 128.568 91.3204 108.87 91.3204 108.87Z" fill="black"/>
<path d="M137.809 108.87C137.809 108.87 163.396 122.075 186.643 108.717C186.643 108.717 182.05 128.568 161.785 128.568C141.518 128.566 137.809 108.87 137.809 108.87Z" fill="black"/>
<path opacity="0.2" d="M229 170.949C229 200.774 208.562 210.328 208.562 210.328V167.601C208.562 190.911 196.072 211.31 177.402 222.465C174.048 224.485 170.492 226.196 166.755 227.56C169.927 230.454 171.915 234.621 171.915 239.243V244.738C171.915 248.869 168.888 252.563 164.749 252.964C160.027 253.4 156.052 249.706 156.052 245.084C156.052 249.452 152.497 253 148.121 253C143.746 253 140.19 249.452 140.19 245.084C140.19 249.706 136.216 253.4 131.475 252.964C127.355 252.563 124.328 248.869 124.328 244.738V239.243C124.328 236.441 125.057 233.802 126.352 231.509H114.574V38.7835H172.972C175.069 31.4137 184.677 0.00546265 195.525 0.00546265C208.015 0.00546265 208.598 31.3955 208.562 38.7835V80.5095C213.594 88.7346 216.493 98.3791 216.493 108.715C216.493 118.96 213.648 128.55 208.671 136.739C210.275 137.121 229 142.38 229 170.949Z" fill="#773600"/>
<path d="M208.562 62.8219H193.748V66.9163H208.562V62.8219Z" fill="#FAF6CD"/>
<path d="M208.562 53.0064L193.748 66.9163V62.8219L208.562 48.912V53.0064Z" fill="#FAF6CD"/>
<path d="M208.562 48.912H193.748V53.0064H208.562V48.912Z" fill="#FAF6CD"/>
<path d="M229 36.1595H210.172V41.3639H229V36.1595Z" fill="#FAF6CD"/>
<path d="M229 23.6817L210.172 41.362V36.1595L229 18.4774V23.6817Z" fill="#FAF6CD"/>
<path d="M229 18.4774H210.172V23.6817H229V18.4774Z" fill="#FAF6CD"/>
</svg>
